<svg width="84" height="13" viewBox="0 0 84 13" fill="none" xmlns="http://www.w3.org/2000/svg">
<path d="M2.28 1.14504V12.441H0.024V1.14504H2.28ZM15.8089 12.441H13.5529L8.49688 4.76104V12.441H6.24088V1.14504H8.49688L13.5529 8.88904V1.14504H15.8089V12.441ZM27.5303 9.35304C27.5303 9.92904 27.3863 10.4624 27.0983 10.953C26.8103 11.433 26.3836 11.8224 25.8183 12.121C25.2529 12.409 24.5649 12.553 23.7543 12.553C22.9543 12.553 22.2396 12.4197 21.6103 12.153C20.9809 11.8757 20.4743 11.481 20.0903 10.969C19.7169 10.457 19.5036 9.85971 19.4503 9.17704H21.8503C21.9036 9.63571 22.0849 10.0197 22.3943 10.329C22.7143 10.6277 23.1356 10.777 23.6583 10.777C24.1276 10.777 24.4849 10.6544 24.7303 10.409C24.9863 10.153 25.1143 9.82771 25.1143 9.43304C25.1143 9.08104 25.0129 8.79304 24.8103 8.56904C24.6076 8.33437 24.3516 8.14771 24.0423 8.00904C23.7329 7.87037 23.3063 7.71037 22.7623 7.52904C22.0583 7.29437 21.4823 7.06504 21.0343 6.84104C20.5863 6.60637 20.2023 6.27037 19.8823 5.83304C19.5729 5.39571 19.4183 4.82504 19.4183 4.12104C19.4183 3.15037 19.7649 2.38771 20.4583 1.83304C21.1623 1.26771 22.0903 0.98504 23.2423 0.98504C24.4369 0.98504 25.3863 1.27304 26.0903 1.84904C26.8049 2.42504 27.2103 3.19304 27.3063 4.15304H24.8743C24.8103 3.74771 24.6396 3.41704 24.3623 3.16104C24.0849 2.89437 23.7063 2.76104 23.2263 2.76104C22.8103 2.76104 22.4743 2.87304 22.2183 3.09704C21.9623 3.31037 21.8343 3.62504 21.8343 4.04104C21.8343 4.37171 21.9303 4.64904 22.1223 4.87304C22.3249 5.08637 22.5756 5.26237 22.8743 5.40104C23.1836 5.53971 23.5996 5.69437 24.1223 5.86504C24.8476 6.12104 25.4343 6.36104 25.8823 6.58504C26.3409 6.80904 26.7303 7.14504 27.0503 7.59304C27.3703 8.04104 27.5303 8.62771 27.5303 9.35304ZM33.3681 1.14504V12.441H31.1121V1.14504H33.3681ZM42.561 1.03304C43.937 1.03304 45.0783 1.37437 45.985 2.05704C46.8917 2.72904 47.473 3.64104 47.729 4.79304H45.361C45.137 4.28104 44.7797 3.87571 44.289 3.57704C43.809 3.26771 43.2383 3.11304 42.577 3.11304C41.9263 3.11304 41.3503 3.26237 40.849 3.56104C40.3477 3.85971 39.9583 4.28637 39.681 4.84104C39.4037 5.39571 39.265 6.04637 39.265 6.79304C39.265 7.97704 39.5797 8.89971 40.209 9.56104C40.849 10.2224 41.7183 10.553 42.817 10.553C43.6277 10.553 44.321 10.313 44.897 9.83304C45.4837 9.35304 45.8623 8.68637 46.033 7.83304H42.209V6.21704H47.921V8.39304C47.761 9.13971 47.4463 9.82771 46.977 10.457C46.5183 11.0864 45.9103 11.593 45.153 11.977C44.4063 12.3504 43.5477 12.537 42.577 12.537C41.4677 12.537 40.4863 12.297 39.633 11.817C38.7903 11.3264 38.1343 10.649 37.665 9.78504C37.2063 8.91037 36.977 7.91304 36.977 6.79304C36.977 5.67304 37.2063 4.68104 37.665 3.81704C38.1343 2.94237 38.7903 2.25971 39.633 1.76904C40.4757 1.27837 41.4517 1.03304 42.561 1.03304ZM60.8902 1.14504V12.441H58.6182V7.52904H53.7862V12.441H51.5302V1.14504H53.7862V5.72104H58.6182V1.14504H60.8902ZM72.5365 1.14504V2.93704H69.4165V12.441H67.1605V2.93704H64.0565V1.14504H72.5365ZM83.4584 9.35304C83.4584 9.92904 83.3144 10.4624 83.0264 10.953C82.7384 11.433 82.3117 11.8224 81.7464 12.121C81.181 12.409 80.493 12.553 79.6824 12.553C78.8824 12.553 78.1677 12.4197 77.5384 12.153C76.909 11.8757 76.4024 11.481 76.0184 10.969C75.645 10.457 75.4317 9.85971 75.3784 9.17704H77.7784C77.8317 9.63571 78.013 10.0197 78.3224 10.329C78.6424 10.6277 79.0637 10.777 79.5864 10.777C80.0557 10.777 80.413 10.6544 80.6584 10.409C80.9144 10.153 81.0424 9.82771 81.0424 9.43304C81.0424 9.08104 80.941 8.79304 80.7384 8.56904C80.5357 8.33437 80.2797 8.14771 79.9704 8.00904C79.661 7.87037 79.2344 7.71037 78.6904 7.52904C77.9864 7.29437 77.4104 7.06504 76.9624 6.84104C76.5144 6.60637 76.1304 6.27037 75.8104 5.83304C75.501 5.39571 75.3464 4.82504 75.3464 4.12104C75.3464 3.15037 75.693 2.38771 76.3864 1.83304C77.0904 1.26771 78.0184 0.98504 79.1704 0.98504C80.365 0.98504 81.3144 1.27304 82.0184 1.84904C82.733 2.42504 83.1384 3.19304 83.2344 4.15304H80.8024C80.7384 3.74771 80.5677 3.41704 80.2904 3.16104C80.013 2.89437 79.6344 2.76104 79.1544 2.76104C78.7384 2.76104 78.4024 2.87304 78.1464 3.09704C77.8904 3.31037 77.7624 3.62504 77.7624 4.04104C77.7624 4.37171 77.8584 4.64904 78.0504 4.87304C78.253 5.08637 78.5037 5.26237 78.8024 5.40104C79.1117 5.53971 79.5277 5.69437 80.0504 5.86504C80.7757 6.12104 81.3624 6.36104 81.8104 6.58504C82.269 6.80904 82.6584 7.14504 82.9784 7.59304C83.2984 8.04104 83.4584 8.62771 83.4584 9.35304Z" fill="#461D9E"/>
</svg>
