<svg width="16" height="17" viewBox="0 0 16 17" fill="none" xmlns="http://www.w3.org/2000/svg">
<path fill-rule="evenodd" clip-rule="evenodd" d="M10.0001 6.88208L10.6267 5.50208L12.0001 4.88208L10.6267 4.26208L10.0001 2.88208L9.38675 4.26208L8.00008 4.88208L9.38675 5.50208L10.0001 6.88208ZM14.0001 6.21541C13.0334 6.21541 12.4934 7.17541 12.7134 7.88875L10.3467 10.2621C10.1467 10.2021 9.85341 10.2021 9.65341 10.2621L7.95341 8.56208C8.18008 7.84875 7.64008 6.88208 6.66675 6.88208C5.70008 6.88208 5.15341 7.84208 5.38008 8.56208L2.34008 11.5954C1.62675 11.3754 0.666748 11.9154 0.666748 12.8821C0.666748 13.6154 1.26675 14.2154 2.00008 14.2154C2.96675 14.2154 3.50675 13.2554 3.28675 12.5421L6.32008 9.50208C6.52008 9.56208 6.81341 9.56208 7.01341 9.50208L8.71341 11.2021C8.48675 11.9154 9.02675 12.8821 10.0001 12.8821C10.9667 12.8821 11.5134 11.9221 11.2867 11.2021L13.6601 8.83541C14.3734 9.05541 15.3334 8.51541 15.3334 7.54875C15.3334 6.81541 14.7334 6.21541 14.0001 6.21541ZM2.66675 6.88208L2.33341 8.21541L2.00008 6.88208L0.666748 6.54875L2.00008 6.21541L2.33341 4.88208L2.66675 6.21541L4.00008 6.54875L2.66675 6.88208Z" fill="#145DEB"/>
</svg>
